<?xml version="1.0" encoding="UTF-8"?>
<svg xmlns="http://www.w3.org/2000/svg" xmlns:xlink="http://www.w3.org/1999/xlink" width="12pt" height="12pt" viewBox="0 0 12 12" version="1.1">
<g id="surface1">
<path style=" stroke:none;fill-rule:nonzero;fill: #fff;fill-opacity:1;" d="M 0 10.875 C 0 11.496094 0.574219 12 1.285156 12 L 10.714844 12 C 11.425781 12 12 11.496094 12 10.875 L 12 4.5 L 0 4.5 Z M 8.570312 6.28125 C 8.570312 6.125 8.714844 6 8.894531 6 L 9.964844 6 C 10.140625 6 10.285156 6.125 10.285156 6.28125 L 10.285156 7.21875 C 10.285156 7.375 10.140625 7.5 9.964844 7.5 L 8.894531 7.5 C 8.714844 7.5 8.570312 7.375 8.570312 7.21875 Z M 8.570312 9.28125 C 8.570312 9.125 8.714844 9 8.894531 9 L 9.964844 9 C 10.140625 9 10.285156 9.125 10.285156 9.28125 L 10.285156 10.21875 C 10.285156 10.375 10.140625 10.5 9.964844 10.5 L 8.894531 10.5 C 8.714844 10.5 8.570312 10.375 8.570312 10.21875 Z M 5.144531 6.28125 C 5.144531 6.125 5.289062 6 5.464844 6 L 6.535156 6 C 6.710938 6 6.855469 6.125 6.855469 6.28125 L 6.855469 7.21875 C 6.855469 7.375 6.710938 7.5 6.535156 7.5 L 5.464844 7.5 C 5.289062 7.5 5.144531 7.375 5.144531 7.21875 Z M 5.144531 9.28125 C 5.144531 9.125 5.289062 9 5.464844 9 L 6.535156 9 C 6.710938 9 6.855469 9.125 6.855469 9.28125 L 6.855469 10.21875 C 6.855469 10.375 6.710938 10.5 6.535156 10.5 L 5.464844 10.5 C 5.289062 10.5 5.144531 10.375 5.144531 10.21875 Z M 1.714844 6.28125 C 1.714844 6.125 1.859375 6 2.035156 6 L 3.105469 6 C 3.285156 6 3.429688 6.125 3.429688 6.28125 L 3.429688 7.21875 C 3.429688 7.375 3.285156 7.5 3.105469 7.5 L 2.035156 7.5 C 1.859375 7.5 1.714844 7.375 1.714844 7.21875 Z M 1.714844 9.28125 C 1.714844 9.125 1.859375 9 2.035156 9 L 3.105469 9 C 3.285156 9 3.429688 9.125 3.429688 9.28125 L 3.429688 10.21875 C 3.429688 10.375 3.285156 10.5 3.105469 10.5 L 2.035156 10.5 C 1.859375 10.5 1.714844 10.375 1.714844 10.21875 Z M 10.714844 1.5 L 9.429688 1.5 L 9.429688 0.375 C 9.429688 0.167969 9.234375 0 9 0 L 8.144531 0 C 7.90625 0 7.714844 0.167969 7.714844 0.375 L 7.714844 1.5 L 4.285156 1.5 L 4.285156 0.375 C 4.285156 0.167969 4.09375 0 3.855469 0 L 3 0 C 2.765625 0 2.570312 0.167969 2.570312 0.375 L 2.570312 1.5 L 1.285156 1.5 C 0.574219 1.5 0 2.003906 0 2.625 L 0 3.75 L 12 3.75 L 12 2.625 C 12 2.003906 11.425781 1.5 10.714844 1.5 Z M 10.714844 1.5 "/>
</g>
</svg>
