<?xml version="1.0" encoding="UTF-8"?>
<svg xmlns="http://www.w3.org/2000/svg" xmlns:xlink="http://www.w3.org/1999/xlink" width="12pt" height="12pt" viewBox="0 0 12 12" version="1.1">
<g id="surface1">
<path style=" stroke:none;fill-rule:nonzero;fill: #fff;fill-opacity:1;" d="M 8.398438 7.125 C 7.632812 7.125 7.261719 7.5 6 7.5 C 4.738281 7.5 4.371094 7.125 3.601562 7.125 C 1.613281 7.125 0 8.535156 0 10.273438 L 0 10.875 C 0 11.496094 0.574219 12 1.285156 12 L 10.714844 12 C 11.425781 12 12 11.496094 12 10.875 L 12 10.273438 C 12 8.535156 10.386719 7.125 8.398438 7.125 Z M 10.714844 10.875 L 1.285156 10.875 L 1.285156 10.273438 C 1.285156 9.160156 2.324219 8.25 3.601562 8.25 C 3.992188 8.25 4.625 8.625 6 8.625 C 7.386719 8.625 8.007812 8.25 8.398438 8.25 C 9.675781 8.25 10.714844 9.160156 10.714844 10.273438 Z M 6 6.75 C 8.128906 6.75 9.855469 5.238281 9.855469 3.375 C 9.855469 1.511719 8.128906 0 6 0 C 3.871094 0 2.144531 1.511719 2.144531 3.375 C 2.144531 5.238281 3.871094 6.75 6 6.75 Z M 6 1.125 C 7.417969 1.125 8.570312 2.136719 8.570312 3.375 C 8.570312 4.613281 7.417969 5.625 6 5.625 C 4.582031 5.625 3.429688 4.613281 3.429688 3.375 C 3.429688 2.136719 4.582031 1.125 6 1.125 Z M 6 1.125 "/>
</g>
</svg>
